<svg width="29.203125" height="45.796875" viewBox="0 0 29.2031 45.7969" fill="none" xmlns="http://www.w3.org/2000/svg" xmlns:xlink="http://www.w3.org/1999/xlink">
	<desc>
			Created with Pixso.
	</desc>
	<defs/>
	<path id="2" d="M28.75 43.09Q28.5 42.92 28.12 42.92L8.56 42.92Q7.45 42.92 6.34 43.04Q5.23 43.17 4.21 43.42L18.39 28.96Q20.34 26.98 22.1 25.07Q23.89 23.17 25.23 21.15Q26.57 19.14 27.35 16.95Q28.15 14.75 28.15 12.2Q28.15 9.12 27.09 6.84Q26.22 4.93 24.82 3.56Q24.54 3.28 24.23 3.03Q23.88 2.74 23.52 2.47Q21.97 1.37 20.06 0.76L20.06 0.76Q17.71 0 15.12 0Q12.34 0 9.93 0.82Q7.93 1.5 6.33 2.71Q6.01 2.94 5.71 3.2Q5.62 3.28 5.53 3.36Q3.82 4.88 2.7 7.04Q1.53 9.31 1.1 12.23L2.68 12.48Q3.32 12.54 3.68 12.32Q4.06 12.09 4.28 11.39Q4.59 9.63 5.39 8.13Q5.45 8 5.53 7.87Q6.19 6.71 7.09 5.78Q7.44 5.41 7.84 5.07Q7.89 5.03 7.95 4.98Q9.3 3.88 11.04 3.25Q12.85 2.59 15 2.59Q16.51 2.59 17.94 2.94Q18.35 3.04 18.76 3.17Q20.27 3.64 21.47 4.54Q21.72 4.73 21.96 4.93Q23.35 6.1 24.18 7.95Q25.01 9.79 25.01 12.29Q25.01 14.5 24.34 16.45Q23.67 18.4 22.46 20.26Q21.26 22.1 19.64 23.93Q18.01 25.76 16.09 27.71L0.62 43.35Q0.6 43.37 0.58 43.39Q0.33 43.65 0.17 44Q0 44.35 0 44.7L0 45.79L29.2 45.79L29.2 44Q29.2 43.67 29.06 43.43Q28.99 43.32 28.9 43.23Q28.83 43.15 28.75 43.09Z" fill="#000000" fill-opacity="1.000000" fill-rule="evenodd"/>
</svg>
