<svg width="29.343750" height="46.312500" viewBox="0 0 29.3438 46.3125" fill="none" xmlns="http://www.w3.org/2000/svg" xmlns:xlink="http://www.w3.org/1999/xlink">
	<desc>
			Created with Pixso.
	</desc>
	<defs/>
	<path id="3" d="M3.07 7.04Q1.89 9.31 1.46 12.23L3.04 12.48Q3.68 12.54 4.03 12.32Q4.39 12.09 4.57 11.39Q4.9 9.67 5.67 8.2Q5.76 8.03 5.85 7.87Q6.51 6.71 7.41 5.78Q7.77 5.41 8.17 5.07Q8.27 4.98 8.38 4.9Q9.71 3.85 11.39 3.25Q13.21 2.59 15.35 2.59Q17.2 2.59 18.9 3.08Q19 3.1 19.1 3.14Q20.6 3.59 21.79 4.47Q22.02 4.65 22.25 4.84Q22.29 4.88 22.33 4.91Q23.61 6.04 24.39 7.75Q25.18 9.51 25.18 11.9Q25.18 13.98 24.42 15.71Q24.19 16.22 23.9 16.69Q23.2 17.8 22.14 18.68Q20.64 19.93 18.4 20.65Q16.17 21.37 13.21 21.43L13.21 23.65Q16.9 23.65 19.4 24.4Q21.92 25.15 23.45 26.45Q24.53 27.35 25.18 28.51Q25.45 29 25.65 29.54Q26.31 31.32 26.31 33.4Q26.31 35.14 25.59 36.98Q25.46 37.31 25.31 37.63Q24.61 39.09 23.4 40.31Q21.95 41.79 19.79 42.76Q17.64 43.71 14.75 43.71Q12.39 43.71 10.65 43.17Q8.93 42.62 7.7 41.76Q6.46 40.9 5.65 39.87Q4.84 38.82 4.32 37.84Q3.81 36.84 3.53 36.03Q3.26 35.2 3.1 34.82Q2.93 34.38 2.61 34.2Q2.47 34.12 2.29 34.09Q1.99 34.03 1.71 34.07Q1.46 34.1 1.21 34.21L0 34.71Q0.57 36.76 1.5 38.84Q1.68 39.25 1.89 39.64Q2.76 41.23 4.09 42.57Q5.76 44.23 8.34 45.28Q10.92 46.31 14.78 46.31Q17.89 46.31 20.54 45.34Q23.2 44.35 25.15 42.64Q26.09 41.81 26.83 40.83Q27.64 39.77 28.21 38.53Q28.45 38.03 28.63 37.53Q29.34 35.56 29.34 33.34Q29.34 30.1 27.95 27.66Q27.46 26.8 26.79 26.04Q24.26 23.1 19.26 22.18Q21.18 21.7 22.81 20.79Q24.27 19.97 25.38 18.82Q25.52 18.67 25.65 18.53Q25.84 18.32 26.02 18.09Q26.96 16.91 27.53 15.42Q28.2 13.64 28.2 11.42Q28.2 8.6 27.18 6.46Q26.47 4.93 25.37 3.76Q24.93 3.3 24.43 2.89Q24.26 2.75 24.09 2.61Q22.46 1.36 20.37 0.71Q18.07 0 15.5 0Q12.7 0 10.29 0.82Q8.29 1.5 6.69 2.71Q6.37 2.94 6.07 3.2Q6.05 3.21 6.03 3.23Q4.25 4.79 3.07 7.04Z" fill="#000000" fill-opacity="1.000000" fill-rule="evenodd"/>
</svg>
