<svg width="20.000000" height="20.000000" viewBox="0 0 20 20" fill="none" xmlns="http://www.w3.org/2000/svg" xmlns:xlink="http://www.w3.org/1999/xlink">
	<desc>
			Created with Pixso.
	</desc>
	<defs/>
	<path id="Vector" d="M9.59 0C9.34 0 9.11 0 8.9 0L8.9 0C6.63 0 6.19 0.01 5.07 0.06C3.88 0.12 3.23 0.32 2.8 0.48C2.23 0.71 1.83 0.97 1.4 1.4C0.97 1.82 0.71 2.23 0.49 2.8C0.32 3.23 0.12 3.88 0.07 5.07C0.01 6.35 0 6.74 0 9.99C0 13.25 0.01 13.64 0.07 14.92C0.12 16.11 0.32 16.76 0.49 17.19C0.71 17.76 0.97 18.16 1.4 18.59C1.83 19.02 2.23 19.28 2.8 19.5C3.23 19.67 3.88 19.87 5.07 19.92C6.35 19.98 6.74 20 10 20C13.25 20 13.64 19.98 14.92 19.92C16.11 19.87 16.76 19.67 17.19 19.5C17.76 19.28 18.16 19.02 18.59 18.59C19.02 18.16 19.28 17.76 19.5 17.19C19.67 16.76 19.87 16.11 19.92 14.92C19.98 13.64 20 13.25 20 10C20 6.74 19.98 6.35 19.92 5.07C19.87 3.88 19.67 3.23 19.5 2.8C19.28 2.23 19.02 1.83 18.59 1.4C18.16 0.97 17.76 0.71 17.19 0.49C16.76 0.32 16.11 0.12 14.92 0.07C13.64 0.01 13.25 0 10 0C9.85 0 9.72 0 9.59 0ZM15.04 3.49C15.04 2.68 15.7 2.02 16.51 2.02C17.32 2.02 17.97 2.68 17.97 3.49C17.97 4.3 17.32 4.95 16.51 4.95C15.7 4.95 15.04 4.3 15.04 3.49ZM3.73 10C3.73 6.54 6.54 3.73 10 3.73C13.45 3.73 16.26 6.54 16.26 10C16.26 13.46 13.45 16.26 10 16.26C6.54 16.26 3.73 13.46 3.73 10ZM14.06 10C14.06 7.75 12.24 5.93 10 5.93C7.75 5.93 5.93 7.75 5.93 10C5.93 12.25 7.75 14.07 10 14.07C12.24 14.07 14.06 12.25 14.06 10Z" fill="#FFFFFF" fill-opacity="1.000000" fill-rule="evenodd"/>
</svg>
