<svg width="146.095703" height="11.914062" viewBox="0 0 146.096 11.9141" fill="none" xmlns="http://www.w3.org/2000/svg" xmlns:xlink="http://www.w3.org/1999/xlink">
	<desc>
			Created with Pixso.
	</desc>
	<defs/>
	<path id="Level Fitness © 2021" d="M33.52 11.78L33.52 0L32.09 0L32.09 11.78L33.52 11.78ZM50.71 1.38Q50.74 1.26 50.74 1.13Q50.74 1.02 50.72 0.92Q50.69 0.83 50.65 0.74Q50.6 0.6 50.51 0.5Q50.47 0.45 50.43 0.41Q50.38 0.36 50.32 0.32Q50.22 0.24 50.1 0.19Q50.04 0.16 49.98 0.15Q49.85 0.11 49.7 0.11Q49.55 0.11 49.41 0.16Q49.36 0.17 49.32 0.19Q49.23 0.23 49.15 0.28Q49.07 0.34 49 0.41Q48.98 0.43 48.96 0.46Q48.85 0.58 48.78 0.74Q48.75 0.81 48.73 0.88Q48.7 1 48.7 1.13Q48.7 1.28 48.75 1.42Q48.76 1.47 48.78 1.52Q48.83 1.62 48.89 1.71Q48.94 1.78 49 1.84Q49.05 1.89 49.1 1.93Q49.2 2.01 49.32 2.06Q49.35 2.07 49.38 2.09Q49.53 2.14 49.7 2.14Q49.86 2.14 50.01 2.1Q50.05 2.08 50.1 2.06Q50.26 1.99 50.38 1.89Q50.41 1.87 50.43 1.84Q50.51 1.76 50.57 1.67Q50.62 1.6 50.65 1.52Q50.69 1.45 50.71 1.38ZM118.32 10.52Q118.19 10.43 118 10.43L114.16 10.43Q113.86 10.43 113.53 10.48Q113.34 10.51 113.14 10.56Q113.01 10.59 112.88 10.62L115.91 7.53Q116.39 7.05 116.81 6.58Q117.24 6.11 117.57 5.61Q117.87 5.15 118.06 4.65Q118.08 4.61 118.09 4.57Q118.28 4.02 118.28 3.38Q118.28 2.63 118.02 2.04Q117.82 1.6 117.51 1.26Q117.41 1.14 117.29 1.03Q117.26 1.01 117.23 0.98Q116.78 0.61 116.19 0.41Q115.56 0.19 114.83 0.19Q114.1 0.19 113.47 0.4Q112.97 0.57 112.55 0.86Q112.44 0.94 112.34 1.02Q112.33 1.03 112.32 1.04Q111.84 1.44 111.52 2.03Q111.2 2.64 111.09 3.42L111.83 3.55Q112.13 3.59 112.29 3.5Q112.46 3.41 112.56 3.12Q112.62 2.8 112.78 2.52Q112.8 2.48 112.83 2.44Q112.93 2.26 113.06 2.12Q113.17 2 113.3 1.9Q113.32 1.89 113.33 1.87Q113.61 1.66 113.95 1.54Q114.32 1.41 114.76 1.41Q115.2 1.41 115.57 1.54Q115.88 1.64 116.13 1.83Q116.17 1.87 116.22 1.91Q116.5 2.16 116.66 2.54Q116.82 2.92 116.82 3.42Q116.82 3.92 116.67 4.37Q116.53 4.81 116.27 5.25Q116 5.67 115.63 6.1Q115.25 6.53 114.79 7L111.12 10.68Q110.99 10.82 110.92 10.98Q110.86 11.14 110.86 11.29L110.86 11.78L118.51 11.78L118.51 10.92Q118.51 10.77 118.44 10.66Q118.41 10.61 118.37 10.57Q118.34 10.54 118.32 10.52ZM127.86 8.66Q128.19 7.56 128.19 6.05Q128.19 4.55 127.86 3.44Q127.54 2.34 126.98 1.62Q126.5 1.01 125.89 0.66Q125.77 0.6 125.65 0.54Q125.42 0.43 125.17 0.36Q124.62 0.19 124.02 0.19Q123.36 0.19 122.76 0.39Q122.57 0.45 122.38 0.54Q122.3 0.58 122.21 0.63Q121.56 0.98 121.07 1.62Q120.51 2.34 120.19 3.44Q119.87 4.55 119.87 6.05Q119.87 7.56 120.19 8.66Q120.51 9.76 121.07 10.48Q121.55 11.1 122.19 11.45Q122.29 11.5 122.38 11.55Q122.56 11.63 122.74 11.69Q123.34 11.9 124.02 11.9Q124.63 11.9 125.19 11.73Q125.43 11.65 125.65 11.55Q125.78 11.49 125.9 11.42Q126.51 11.07 126.98 10.48Q127.54 9.76 127.86 8.66ZM136.88 10.52Q136.75 10.43 136.56 10.43L132.72 10.43Q132.42 10.43 132.09 10.48Q131.89 10.51 131.7 10.56Q131.57 10.59 131.44 10.62L134.47 7.53Q134.95 7.05 135.37 6.58Q135.8 6.11 136.13 5.61Q136.43 5.15 136.62 4.65Q136.64 4.61 136.65 4.57Q136.84 4.02 136.84 3.38Q136.84 2.63 136.58 2.04Q136.38 1.6 136.07 1.26Q135.97 1.14 135.85 1.03Q135.82 1.01 135.79 0.98Q135.34 0.61 134.75 0.41Q134.12 0.19 133.39 0.19Q132.66 0.19 132.03 0.4Q131.53 0.57 131.11 0.86Q131 0.94 130.9 1.02Q130.89 1.03 130.88 1.04Q130.4 1.44 130.08 2.03Q129.76 2.64 129.65 3.42L130.39 3.55Q130.69 3.59 130.85 3.5Q131.02 3.41 131.12 3.12Q131.18 2.8 131.34 2.52Q131.36 2.48 131.39 2.44Q131.49 2.26 131.62 2.12Q131.73 2 131.86 1.9Q131.88 1.89 131.89 1.87Q132.17 1.66 132.51 1.54Q132.88 1.41 133.32 1.41Q133.76 1.41 134.13 1.54Q134.44 1.64 134.69 1.83Q134.73 1.87 134.78 1.91Q135.06 2.16 135.22 2.54Q135.38 2.92 135.38 3.42Q135.38 3.92 135.23 4.37Q135.09 4.81 134.83 5.25Q134.56 5.67 134.19 6.1Q133.81 6.53 133.35 7L129.68 10.68Q129.55 10.82 129.48 10.98Q129.42 11.14 129.42 11.29L129.42 11.78L137.07 11.78L137.07 10.92Q137.07 10.77 137 10.66Q136.97 10.61 136.93 10.57Q136.9 10.54 136.88 10.52ZM93.72 4.5Q93.51 5.25 93.51 6.05Q93.51 6.86 93.72 7.6Q93.89 8.22 94.19 8.78Q94.25 8.89 94.31 9Q94.51 9.33 94.75 9.64Q94.98 9.92 95.23 10.18Q95.48 10.43 95.75 10.64Q96.06 10.89 96.41 11.09Q96.49 11.14 96.58 11.19Q97.15 11.5 97.8 11.69Q98.55 11.89 99.35 11.89Q100.16 11.89 100.91 11.69Q101.66 11.48 102.3 11.09Q102.61 10.91 102.9 10.69Q103.21 10.46 103.49 10.18Q103.85 9.82 104.14 9.41Q104.28 9.21 104.41 9Q104.42 8.97 104.44 8.94Q104.79 8.31 104.99 7.6Q105.03 7.45 105.07 7.3Q105.2 6.69 105.2 6.05Q105.2 5.25 104.99 4.5Q104.79 3.78 104.43 3.14Q104.42 3.12 104.41 3.1Q104.23 2.8 104.03 2.53Q103.78 2.2 103.49 1.91Q103.21 1.64 102.9 1.4Q102.61 1.18 102.3 1Q102.28 0.99 102.26 0.97Q101.63 0.6 100.91 0.41Q100.16 0.19 99.35 0.19Q98.55 0.19 97.8 0.41Q97.21 0.57 96.69 0.84Q96.55 0.92 96.41 1Q96.06 1.2 95.75 1.45Q95.48 1.67 95.23 1.91Q95.04 2.1 94.88 2.3Q94.56 2.67 94.31 3.1Q94.28 3.15 94.25 3.21Q93.91 3.82 93.72 4.5ZM146.09 11.78L146.09 10.69L143.83 10.69L143.83 0.29L142.67 0.29L139.26 3.25L139.71 3.86Q139.75 3.92 139.82 3.96Q139.89 4 139.96 4.02Q139.97 4.03 139.99 4.03Q140.08 4.05 140.18 4.03Q140.28 4 140.39 3.92L142.43 2.16Q142.4 2.52 142.4 2.88L142.4 10.69L139.95 10.69L139.95 11.78L146.09 11.78ZM6.5 11.78L6.5 10.48L1.54 10.48L1.54 0.32L0 0.32L0 11.78L6.5 11.78ZM41.8 5.59L41.8 1.58L47.31 1.58L47.31 0.32L40.25 0.32L40.25 11.78L41.8 11.78L41.8 6.85L46.51 6.85L46.51 5.59L41.8 5.59ZM94.5 7.42Q94.32 6.76 94.32 6.05Q94.32 5.34 94.5 4.67Q94.67 4.01 95 3.44Q95.15 3.18 95.33 2.93Q95.54 2.65 95.78 2.4Q96.16 2.01 96.59 1.72Q96.69 1.65 96.8 1.59Q97.35 1.26 98 1.08Q98.65 0.89 99.35 0.89Q100.14 0.89 100.86 1.12Q101.1 1.2 101.34 1.3Q102.02 1.6 102.57 2.05Q102.77 2.22 102.95 2.4Q103.1 2.56 103.24 2.72Q103.72 3.31 104.03 4.04Q104.09 4.19 104.15 4.34Q104.43 5.15 104.43 6.05Q104.43 6.76 104.25 7.42Q104.08 8.04 103.77 8.59Q103.76 8.62 103.74 8.65Q103.55 8.98 103.32 9.27Q103.14 9.49 102.95 9.69Q102.8 9.84 102.64 9.98Q102.3 10.26 101.93 10.48L101.92 10.48Q101.36 10.81 100.71 10.99Q100.06 11.17 99.35 11.17Q98.65 11.17 98 10.99Q97.36 10.81 96.81 10.49Q96.8 10.48 96.8 10.48Q96.6 10.36 96.41 10.22Q96.07 9.98 95.78 9.69Q95.59 9.5 95.43 9.29Q95.19 8.99 95 8.65Q94.99 8.63 94.98 8.61Q94.67 8.05 94.5 7.42ZM53.91 11.49Q54.41 11.91 55.26 11.91Q55.5 11.91 55.74 11.87Q56.04 11.82 56.33 11.71Q56.85 11.51 57.22 11.17L56.8 10.49Q56.72 10.37 56.63 10.36Q56.62 10.35 56.6 10.35Q56.54 10.35 56.45 10.42Q56.37 10.48 56.25 10.55Q56.13 10.62 55.97 10.68Q55.8 10.74 55.58 10.74Q55.3 10.74 55.1 10.62Q55.01 10.57 54.94 10.5Q54.69 10.25 54.69 9.73L54.69 4.87L57.03 4.87L57.03 3.83L54.69 3.83L54.69 1.05L53.97 1.05Q53.85 1.05 53.77 1.1Q53.76 1.11 53.75 1.12Q53.73 1.14 53.71 1.16Q53.66 1.22 53.64 1.32L53.31 3.82L51.99 3.99L51.99 4.56Q51.99 4.71 52.06 4.78Q52.07 4.79 52.07 4.8Q52.1 4.82 52.13 4.83Q52.2 4.87 52.29 4.87L53.27 4.87L53.27 9.83Q53.27 10.81 53.76 11.34Q53.77 11.36 53.78 11.37Q53.84 11.44 53.91 11.49ZM126.48 3.85Q126.71 4.74 126.71 6.05Q126.71 7.37 126.48 8.25Q126.27 9.14 125.89 9.69Q125.52 10.23 125.04 10.47Q124.72 10.62 124.4 10.67Q124.21 10.7 124.02 10.7Q123.83 10.7 123.64 10.67Q123.31 10.62 123 10.47Q122.52 10.23 122.14 9.69Q121.78 9.14 121.56 8.25Q121.34 7.37 121.34 6.05Q121.34 4.74 121.56 3.85Q121.78 2.96 122.14 2.41Q122.52 1.87 123 1.64Q123.32 1.48 123.65 1.43Q123.83 1.4 124.02 1.4Q124.21 1.4 124.39 1.43Q124.72 1.48 125.04 1.64Q125.52 1.87 125.89 2.41Q126.27 2.96 126.48 3.85ZM101.48 7.99Q101.44 7.98 101.4 7.99Q101.2 8.08 101.03 8.2Q100.86 8.31 100.64 8.4Q100.43 8.49 100.15 8.56Q99.87 8.62 99.46 8.62Q98.96 8.62 98.54 8.45Q98.29 8.35 98.08 8.19Q97.94 8.08 97.82 7.95Q97.51 7.62 97.34 7.14Q97.17 6.65 97.17 6.04Q97.17 5.44 97.34 4.96Q97.51 4.48 97.82 4.14L97.83 4.14Q97.93 4.04 98.04 3.95Q98.29 3.75 98.59 3.62Q99.04 3.44 99.61 3.44Q100.07 3.44 100.38 3.54Q100.69 3.63 100.89 3.74Q101.09 3.84 101.21 3.93Q101.34 4.02 101.45 4.02Q101.52 4.02 101.58 3.99Q101.59 3.98 101.6 3.97Q101.67 3.92 101.71 3.88L102.07 3.35Q101.97 3.25 101.86 3.16Q101.48 2.85 101.01 2.64Q100.41 2.37 99.54 2.37Q98.75 2.37 98.09 2.64Q97.57 2.85 97.16 3.18Q97.04 3.28 96.93 3.39Q96.86 3.46 96.79 3.54Q96.4 3.98 96.17 4.55Q95.9 5.23 95.9 6.04Q95.9 6.83 96.15 7.51Q96.38 8.13 96.79 8.59Q96.83 8.63 96.86 8.67Q96.99 8.8 97.14 8.92Q97.5 9.23 97.96 9.43Q98.61 9.7 99.39 9.7Q100.32 9.7 100.98 9.41Q101.44 9.21 101.8 8.89Q101.96 8.75 102.1 8.59L101.62 8.08Q101.56 8.01 101.48 7.99ZM13.23 11.2Q13.6 10.96 13.87 10.64L13.47 10.12Q13.42 10.06 13.36 10.03Q13.29 9.99 13.19 9.99Q13.06 9.99 12.87 10.11Q12.68 10.24 12.4 10.38Q12.12 10.52 11.73 10.65Q11.35 10.77 10.81 10.77Q10.23 10.77 9.77 10.58Q9.58 10.51 9.41 10.4Q9.17 10.24 8.97 10.02Q8.63 9.64 8.45 9.07Q8.26 8.5 8.23 7.73L13.65 7.73Q13.82 7.73 13.9 7.65Q13.91 7.63 13.92 7.62Q13.99 7.51 13.99 7.17Q13.99 6.31 13.74 5.63Q13.48 4.96 13.03 4.5Q12.88 4.35 12.72 4.22Q12.37 3.96 11.96 3.8Q11.34 3.55 10.61 3.55Q9.73 3.55 9.03 3.86Q8.49 4.09 8.08 4.46Q7.95 4.58 7.83 4.71Q7.82 4.73 7.8 4.74Q7.34 5.27 7.08 5.98Q6.83 6.72 6.83 7.57Q6.83 8.61 7.11 9.42Q7.4 10.23 7.92 10.78Q8.15 11.02 8.41 11.21Q8.75 11.45 9.14 11.61Q9.85 11.89 10.69 11.89Q11.13 11.89 11.58 11.82Q12.03 11.74 12.44 11.59Q12.87 11.44 13.23 11.2ZM29.54 11.2Q29.91 10.96 30.17 10.64L29.77 10.12Q29.73 10.06 29.67 10.03Q29.59 9.99 29.5 9.99Q29.36 9.99 29.17 10.11Q28.99 10.24 28.7 10.38Q28.43 10.52 28.04 10.65Q27.65 10.77 27.11 10.77Q26.54 10.77 26.07 10.58Q25.88 10.51 25.71 10.4Q25.47 10.24 25.27 10.02Q24.94 9.64 24.75 9.07Q24.56 8.5 24.54 7.73L29.95 7.73Q30.13 7.73 30.2 7.65Q30.22 7.63 30.22 7.62Q30.3 7.51 30.3 7.17Q30.3 6.31 30.04 5.63Q29.79 4.96 29.33 4.5Q29.19 4.35 29.02 4.22Q28.68 3.96 28.26 3.8Q27.64 3.55 26.92 3.55Q26.03 3.55 25.33 3.86Q24.79 4.09 24.38 4.46Q24.25 4.58 24.14 4.71Q24.12 4.73 24.1 4.74Q23.64 5.27 23.39 5.98Q23.13 6.72 23.13 7.57Q23.13 8.61 23.42 9.42Q23.7 10.23 24.22 10.78Q24.45 11.02 24.71 11.21Q25.05 11.45 25.45 11.61Q26.15 11.89 26.99 11.89Q27.43 11.89 27.88 11.82Q28.33 11.74 28.75 11.59Q29.17 11.44 29.54 11.2ZM60.41 4.32Q60.11 4.56 59.85 4.85L59.74 3.97Q59.7 3.82 59.61 3.75Q59.51 3.67 59.36 3.67L58.51 3.67L58.51 11.78L59.94 11.78L59.94 5.81Q60.4 5.29 60.95 4.99Q61.21 4.84 61.49 4.77Q61.8 4.68 62.13 4.68Q62.84 4.68 63.25 5.03Q63.33 5.11 63.41 5.19Q63.83 5.7 63.83 6.62L63.83 11.78L65.26 11.78L65.26 6.62Q65.26 5.93 65.08 5.37Q64.91 4.8 64.57 4.39Q64.46 4.27 64.35 4.17Q64.07 3.92 63.72 3.77Q63.21 3.55 62.55 3.55Q62.11 3.55 61.74 3.64Q61.42 3.72 61.13 3.86Q61.08 3.88 61.04 3.91Q60.71 4.08 60.41 4.32ZM73.38 11.2Q73.75 10.96 74.01 10.64L73.61 10.12Q73.57 10.06 73.51 10.03Q73.43 9.99 73.34 9.99Q73.2 9.99 73.01 10.11Q72.83 10.24 72.54 10.38Q72.27 10.52 71.88 10.65Q71.49 10.77 70.95 10.77Q70.38 10.77 69.91 10.58Q69.72 10.51 69.55 10.4Q69.31 10.24 69.11 10.02Q68.78 9.64 68.59 9.07Q68.4 8.5 68.38 7.73L73.79 7.73Q73.97 7.73 74.04 7.65Q74.06 7.63 74.06 7.62Q74.14 7.51 74.14 7.17Q74.14 6.31 73.88 5.63Q73.63 4.96 73.17 4.5Q73.03 4.35 72.86 4.22Q72.52 3.96 72.1 3.8Q71.48 3.55 70.76 3.55Q69.87 3.55 69.17 3.86Q68.63 4.09 68.22 4.46Q68.09 4.58 67.98 4.71Q67.96 4.73 67.94 4.74Q67.48 5.27 67.23 5.98Q66.97 6.72 66.97 7.57Q66.97 8.61 67.26 9.42Q67.54 10.23 68.06 10.78Q68.29 11.02 68.55 11.21Q68.89 11.45 69.29 11.61Q69.99 11.89 70.83 11.89Q71.27 11.89 71.72 11.82Q72.17 11.74 72.59 11.59Q73.01 11.44 73.38 11.2ZM80.49 5.14Q80.56 5.1 80.6 5.01L80.92 4.49Q80.91 4.48 80.89 4.46Q80.44 4.05 79.82 3.8Q79.19 3.55 78.39 3.55Q77.7 3.55 77.16 3.74Q76.63 3.93 76.26 4.26Q75.99 4.49 75.82 4.78Q75.75 4.89 75.7 5.01Q75.6 5.23 75.55 5.47Q75.51 5.68 75.51 5.9Q75.51 6.42 75.69 6.78Q75.83 7.08 76.05 7.3Q76.1 7.35 76.16 7.4Q76.46 7.64 76.84 7.81Q77.19 7.96 77.56 8.08Q77.59 8.09 77.61 8.1Q78.01 8.23 78.39 8.35Q78.77 8.46 79.07 8.62Q79.36 8.77 79.54 9Q79.57 9.03 79.59 9.06Q79.72 9.26 79.72 9.55Q79.72 9.73 79.68 9.9Q79.66 9.98 79.62 10.06Q79.61 10.09 79.6 10.12Q79.5 10.32 79.31 10.48Q79.11 10.67 78.79 10.78Q78.48 10.89 78.07 10.89Q77.58 10.89 77.25 10.77Q76.92 10.66 76.69 10.53Q76.47 10.39 76.3 10.28Q76.14 10.16 76 10.16Q75.87 10.16 75.78 10.22Q75.69 10.28 75.63 10.38L75.29 10.92Q75.77 11.35 76.46 11.63Q77.14 11.91 77.99 11.91Q78.74 11.91 79.3 11.71Q79.88 11.51 80.27 11.16Q80.49 10.96 80.64 10.73Q80.77 10.54 80.86 10.33Q80.86 10.31 80.87 10.29Q81.06 9.83 81.06 9.3Q81.06 8.81 80.88 8.46Q80.76 8.23 80.59 8.05Q80.5 7.96 80.4 7.88Q80.11 7.64 79.73 7.48Q79.36 7.32 78.96 7.19Q78.56 7.05 78.18 6.94Q77.81 6.82 77.51 6.67Q77.22 6.51 77.04 6.31Q77 6.26 76.96 6.2Q76.86 6.03 76.86 5.79Q76.86 5.62 76.91 5.46Q76.93 5.39 76.97 5.33Q76.98 5.3 76.99 5.28Q77.1 5.1 77.28 4.96Q77.48 4.8 77.77 4.71Q78.06 4.61 78.42 4.61Q78.83 4.61 79.14 4.71Q79.44 4.8 79.66 4.91Q79.88 5.01 80.04 5.1Q80.19 5.19 80.3 5.19Q80.41 5.19 80.49 5.14ZM87.41 5.14Q87.48 5.1 87.53 5.01L87.85 4.49Q87.83 4.48 87.82 4.46Q87.36 4.05 86.75 3.8Q86.12 3.55 85.32 3.55Q84.63 3.55 84.09 3.74Q83.55 3.93 83.19 4.26Q82.92 4.49 82.75 4.78Q82.68 4.89 82.63 5.01Q82.53 5.23 82.48 5.47Q82.44 5.68 82.44 5.9Q82.44 6.42 82.62 6.78Q82.76 7.08 82.98 7.3Q83.03 7.35 83.09 7.4Q83.39 7.64 83.76 7.81Q84.12 7.96 84.49 8.08Q84.52 8.09 84.54 8.1Q84.94 8.23 85.32 8.35Q85.7 8.46 85.99 8.62Q86.29 8.77 86.47 9Q86.5 9.03 86.52 9.06Q86.65 9.26 86.65 9.55Q86.65 9.73 86.61 9.9Q86.58 9.98 86.55 10.06Q86.54 10.09 86.52 10.12Q86.43 10.32 86.24 10.48Q86.03 10.67 85.72 10.78Q85.41 10.89 84.99 10.89Q84.51 10.89 84.18 10.77Q83.85 10.66 83.62 10.53Q83.39 10.39 83.23 10.28Q83.07 10.16 82.93 10.16Q82.8 10.16 82.71 10.22Q82.62 10.28 82.55 10.38L82.22 10.92Q82.7 11.35 83.39 11.63Q84.07 11.91 84.92 11.91Q85.67 11.91 86.23 11.71Q86.8 11.51 87.19 11.16Q87.41 10.96 87.57 10.73Q87.7 10.54 87.78 10.33Q87.79 10.31 87.8 10.29Q87.99 9.83 87.99 9.3Q87.99 8.81 87.81 8.46Q87.69 8.23 87.52 8.05Q87.43 7.96 87.33 7.88Q87.03 7.64 86.66 7.48Q86.28 7.32 85.89 7.19Q85.49 7.05 85.11 6.94Q84.74 6.82 84.44 6.67Q84.15 6.51 83.97 6.31Q83.92 6.26 83.89 6.2Q83.79 6.03 83.79 5.79Q83.79 5.62 83.84 5.46Q83.86 5.39 83.89 5.33Q83.91 5.3 83.92 5.28Q84.03 5.1 84.21 4.96Q84.41 4.8 84.7 4.71Q84.99 4.61 85.35 4.61Q85.76 4.61 86.07 4.71Q86.37 4.8 86.59 4.91Q86.81 5.01 86.96 5.1Q87.12 5.19 87.23 5.19Q87.34 5.19 87.41 5.14ZM19.2 11.78L22.5 3.67L21.4 3.67Q21.29 3.67 21.21 3.71Q21.17 3.73 21.13 3.76Q21.08 3.8 21.04 3.85Q21 3.9 20.97 3.97L18.89 9.19Q18.79 9.48 18.71 9.76Q18.64 10.05 18.58 10.32Q18.51 10.05 18.44 9.76Q18.37 9.48 18.27 9.19L16.22 3.97Q16.21 3.95 16.2 3.92Q16.15 3.83 16.06 3.76Q16.06 3.76 16.05 3.75Q15.94 3.67 15.78 3.67L14.62 3.67L17.92 11.78L19.2 11.78ZM50.44 11.78L50.44 3.67L49.01 3.67L49.01 11.78L50.44 11.78ZM12.57 5.94Q12.71 6.35 12.71 6.84L8.28 6.84Q8.43 5.79 9.02 5.19Q9.14 5.08 9.27 4.99Q9.81 4.6 10.64 4.6Q11.13 4.6 11.51 4.76Q11.77 4.87 11.97 5.04Q12.08 5.12 12.17 5.23Q12.17 5.24 12.18 5.24Q12.44 5.54 12.57 5.94ZM28.88 5.94Q29.02 6.35 29.02 6.84L24.59 6.84Q24.73 5.79 25.33 5.19Q25.44 5.08 25.57 4.99Q26.12 4.6 26.95 4.6Q27.43 4.6 27.82 4.76Q28.07 4.87 28.28 5.04Q28.38 5.12 28.47 5.23Q28.48 5.24 28.49 5.24Q28.74 5.54 28.88 5.94ZM72.72 5.94Q72.86 6.35 72.86 6.84L68.43 6.84Q68.57 5.79 69.17 5.19Q69.28 5.08 69.41 4.99Q69.96 4.6 70.79 4.6Q71.27 4.6 71.66 4.76Q71.91 4.87 72.12 5.04Q72.22 5.12 72.31 5.23Q72.32 5.24 72.33 5.24Q72.58 5.54 72.72 5.94Z" fill="#858585" fill-opacity="1.000000" fill-rule="evenodd"/>
</svg>
