<svg width="166.000000" height="76.000000" viewBox="0 0 166 76" fill="none" xmlns="http://www.w3.org/2000/svg" xmlns:xlink="http://www.w3.org/1999/xlink">
	<desc>
			Created with Pixso.
	</desc>
	<defs>
		<clipPath id="clip2_174">
			<rect id="logo_lvl_fitAsset 1 1" width="166.000000" height="76.000000" fill="white" fill-opacity="0"/>
		</clipPath>
	</defs>
	<rect id="logo_lvl_fitAsset 1 1" width="166.000000" height="76.000000" fill="#FFFFFF" fill-opacity="0"/>
	<g clip-path="url(#clip2_174)">
		<path id="Vector" d="M136.9 23.06L136.9 42.26L147.95 42.26L147.95 48.42L129.05 48.42L129.05 23.06L136.9 23.06Z" fill="#FFFFFF" fill-opacity="1.000000" fill-rule="evenodd"/>
		<path id="Vector" d="M118.18 23.06L118.18 28.77L103.24 28.77L103.24 32.87L117.02 32.87L117.02 38.57L103.24 38.57L103.24 42.72L118.6 42.72L118.6 48.42L95.39 48.42L95.39 23.06L118.18 23.06Z" fill="#FFFFFF" fill-opacity="1.000000" fill-rule="evenodd"/>
		<path id="Vector" d="M77.06 48.42L69.96 48.42L60.08 23.06L68.28 23.06L73.59 38.42L78.81 23.06L86.88 23.06L77.06 48.42Z" fill="#FFFFFF" fill-opacity="1.000000" fill-rule="evenodd"/>
		<path id="Vector" d="M51.44 23.06L51.44 28.77L36.5 28.77L36.5 32.87L50.28 32.87L50.28 38.57L36.5 38.57L36.5 42.72L51.86 42.72L51.86 48.42L28.65 48.42L28.65 23.06L51.44 23.06Z" fill="#FFFFFF" fill-opacity="1.000000" fill-rule="evenodd"/>
		<path id="Vector" d="M8.47 23.06L8.47 42.26L19.53 42.26L19.53 48.42L0.63 48.42L0.63 23.06L8.47 23.06Z" fill="#FFFFFF" fill-opacity="1.000000" fill-rule="evenodd"/>
		<path id="Vector" d="M110.16 68.41L107.34 68.63C107.29 68.4 107.16 68.2 106.97 68.05C106.66 67.87 106.3 67.79 105.94 67.81C105.04 67.81 104.6 68.05 104.6 68.52C104.59 68.61 104.61 68.69 104.65 68.77C104.68 68.85 104.74 68.92 104.82 68.97C105.08 69.12 105.38 69.22 105.68 69.27L107.99 69.79C108.66 69.9 109.28 70.2 109.78 70.65C110.17 71.08 110.37 71.64 110.34 72.22C110.34 72.72 110.21 73.22 109.96 73.66C109.72 74.08 109.37 74.43 108.95 74.67C107.94 75.17 106.83 75.41 105.7 75.36C104.01 75.36 102.83 75.01 102.18 74.29C101.75 73.78 101.48 73.15 101.4 72.49L104.31 72.38C104.44 73.07 105.01 73.41 106.01 73.41C106.39 73.43 106.77 73.34 107.11 73.15C107.23 73.09 107.33 72.98 107.41 72.86C107.48 72.74 107.51 72.6 107.51 72.46C107.51 72.07 107.18 71.81 106.56 71.68L104.31 71.24C102.61 70.91 101.77 70.08 101.77 68.75C101.75 68.33 101.85 67.91 102.04 67.54C102.23 67.17 102.52 66.85 102.87 66.62C103.61 66.11 104.63 65.86 105.95 65.86C107.46 65.86 108.56 66.13 109.24 66.67C109.76 67.12 110.09 67.74 110.16 68.41Z" fill="#FFFFFF" fill-opacity="1.000000" fill-rule="evenodd"/>
		<path id="Vector" d="M98.94 68.41L96.13 68.63C96.07 68.4 95.94 68.2 95.76 68.05C95.44 67.87 95.08 67.79 94.72 67.81C93.83 67.81 93.38 68.05 93.38 68.52C93.37 68.61 93.39 68.7 93.43 68.77C93.47 68.85 93.53 68.92 93.6 68.97C93.87 69.12 94.16 69.22 94.47 69.27L96.77 69.79C97.44 69.9 98.06 70.2 98.57 70.65C98.95 71.08 99.15 71.64 99.12 72.22C99.13 72.72 99 73.22 98.75 73.66C98.51 74.08 98.16 74.43 97.73 74.67C96.73 75.17 95.61 75.41 94.49 75.36C92.79 75.36 91.62 75.01 90.97 74.29C90.53 73.78 90.26 73.15 90.19 72.49L93.09 72.38C93.23 73.07 93.79 73.41 94.8 73.41C95.18 73.43 95.56 73.34 95.89 73.15C96.01 73.09 96.12 72.98 96.19 72.86C96.26 72.74 96.3 72.6 96.29 72.46C96.29 72.07 95.96 71.81 95.34 71.68L93.09 71.24C91.4 70.91 90.55 70.08 90.55 68.75C90.54 68.33 90.63 67.91 90.82 67.54C91.02 67.17 91.3 66.85 91.66 66.62C92.39 66.11 93.41 65.86 94.73 65.86C96.25 65.86 97.34 66.13 98.02 66.67C98.54 67.12 98.87 67.74 98.94 68.41Z" fill="#FFFFFF" fill-opacity="1.000000" fill-rule="evenodd"/>
		<path id="Vector" d="M87.56 66.14L87.56 68.15L81.94 68.15L81.94 69.59L87.12 69.59L87.12 71.6L81.94 71.6L81.94 73.06L87.72 73.06L87.72 75.07L78.99 75.07L78.99 66.14L87.56 66.14Z" fill="#FFFFFF" fill-opacity="1.000000" fill-rule="evenodd"/>
		<path id="Vector" d="M75.81 66.14L75.81 75.07L73.42 75.07L69.55 70.27L69.55 75.07L66.73 75.07L66.73 66.14L69.13 66.14L73 70.96L73 66.14L75.81 66.14Z" fill="#FFFFFF" fill-opacity="1.000000" fill-rule="evenodd"/>
		<path id="Vector" d="M64.45 66.14L64.45 68.15L61.59 68.15L61.59 75.07L58.63 75.07L58.63 68.15L55.76 68.15L55.76 66.14L64.45 66.14Z" fill="#FFFFFF" fill-opacity="1.000000" fill-rule="evenodd"/>
		<path id="Vector" d="M50.47 66.14L53.41 66.14L53.41 75.07L50.47 75.07L50.47 66.14Z" fill="#FFFFFF" fill-opacity="1.000000" fill-rule="evenodd"/>
		<path id="Vector" d="M47.78 66.14L47.78 68.15L42.76 68.15L42.76 69.86L47.38 69.86L47.38 71.87L42.76 71.87L42.76 75.07L39.81 75.07L39.81 66.14L47.78 66.14Z" fill="#FFFFFF" fill-opacity="1.000000" fill-rule="evenodd"/>
		<path id="Vector" d="M149.37 0L149.37 4.92L160.96 4.92L160.96 21.48L166 21.48L166 4.92L166 4.53L166 0L149.37 0Z" fill="#E7490F" fill-opacity="1.000000" fill-rule="nonzero"/>
	</g>
</svg>
