<svg width="16.500000" height="21.000000" viewBox="0 0 16.5 21" fill="none" xmlns="http://www.w3.org/2000/svg" xmlns:xlink="http://www.w3.org/1999/xlink">
	<desc>
			Created with Pixso.
	</desc>
	<defs/>
	<path id="Vector" d="M8.25 0C6.06 0 3.96 0.87 2.41 2.41C0.87 3.96 0 6.06 0 8.25C0 15.3 7.5 20.64 7.81 20.86C7.94 20.95 8.09 21 8.25 21C8.4 21 8.55 20.95 8.68 20.86C9 20.64 16.5 15.3 16.5 8.25C16.49 6.06 15.62 3.96 14.08 2.41C12.53 0.87 10.43 0 8.25 0ZM8.25 5.25C8.84 5.25 9.42 5.42 9.91 5.75C10.41 6.08 10.79 6.55 11.02 7.1C11.24 7.65 11.3 8.25 11.19 8.83C11.07 9.41 10.79 9.95 10.37 10.37C9.95 10.79 9.41 11.07 8.83 11.19C8.25 11.3 7.65 11.24 7.1 11.02C6.55 10.79 6.08 10.41 5.75 9.91C5.42 9.42 5.25 8.84 5.25 8.25C5.25 7.85 5.32 7.46 5.47 7.1C5.62 6.73 5.85 6.4 6.12 6.12C6.4 5.85 6.73 5.62 7.1 5.47C7.46 5.32 7.85 5.25 8.25 5.25Z" fill="#E7490F" fill-opacity="1.000000" fill-rule="nonzero"/>
</svg>
