<svg width="16.000000" height="16.000000" viewBox="0 0 16 16" fill="none" xmlns="http://www.w3.org/2000/svg" xmlns:xlink="http://www.w3.org/1999/xlink">
	<desc>
			Created with Pixso.
	</desc>
	<defs/>
	<path id="Vector" d="M15.22 10.74L11.46 9.13C11.27 9.05 11.06 9.01 10.84 9.03C10.63 9.05 10.42 9.13 10.25 9.24L8.24 10.58C7.01 9.98 6.02 9 5.42 7.77L5.42 7.77L6.75 5.74C6.87 5.56 6.94 5.36 6.96 5.15C6.98 4.93 6.94 4.72 6.86 4.53L5.25 0.77C5.14 0.52 4.95 0.3 4.71 0.17C4.47 0.03 4.19 -0.03 3.91 0C2.83 0.14 1.84 0.67 1.12 1.49C0.4 2.31 0 3.36 0 4.46C0 10.82 5.17 16 11.53 16C12.63 15.99 13.68 15.6 14.5 14.87C15.32 14.15 15.85 13.16 15.99 12.07C16.02 11.8 15.96 11.52 15.82 11.28C15.68 11.04 15.47 10.85 15.22 10.74Z" fill="#FFFFFF" fill-opacity="1.000000" fill-rule="nonzero"/>
</svg>
