<svg width="18.000000" height="19.500000" viewBox="0 0 18 19.5" fill="none" xmlns="http://www.w3.org/2000/svg" xmlns:xlink="http://www.w3.org/1999/xlink">
	<desc>
			Created with Pixso.
	</desc>
	<defs/>
	<path id="Vector" d="M16.5 1.5L14.25 1.5L14.25 0.75C14.25 0.55 14.17 0.36 14.03 0.21C13.88 0.07 13.69 0 13.5 0C13.3 0 13.11 0.07 12.96 0.21C12.82 0.36 12.75 0.55 12.75 0.75L12.75 1.5L5.25 1.5L5.25 0.75C5.25 0.55 5.17 0.36 5.03 0.21C4.88 0.07 4.69 0 4.5 0C4.3 0 4.11 0.07 3.96 0.21C3.82 0.36 3.75 0.55 3.75 0.75L3.75 1.5L1.5 1.5C1.1 1.5 0.72 1.65 0.43 1.93C0.15 2.22 0 2.6 0 3L0 18C0 18.39 0.15 18.77 0.43 19.06C0.72 19.34 1.1 19.49 1.5 19.5L16.5 19.5C16.89 19.49 17.27 19.34 17.56 19.06C17.84 18.77 18 18.39 18 18L18 3C18 2.6 17.84 2.22 17.56 1.93C17.27 1.65 16.89 1.5 16.5 1.5ZM16.5 6L1.5 6L1.5 3L3.75 3L3.75 3.75C3.75 3.94 3.82 4.13 3.96 4.28C4.11 4.42 4.3 4.5 4.5 4.5C4.69 4.5 4.88 4.42 5.03 4.28C5.17 4.13 5.25 3.94 5.25 3.75L5.25 3L12.75 3L12.75 3.75C12.75 3.94 12.82 4.13 12.96 4.28C13.11 4.42 13.3 4.5 13.5 4.5C13.69 4.5 13.88 4.42 14.03 4.28C14.17 4.13 14.25 3.94 14.25 3.75L14.25 3L16.5 3L16.5 6Z" fill="#E7490F" fill-opacity="1.000000" fill-rule="nonzero"/>
</svg>
