<svg width="1339.207031" height="230.570801" viewBox="0 0 1339.21 230.571" fill="none" xmlns="http://www.w3.org/2000/svg" xmlns:xlink="http://www.w3.org/1999/xlink">
	<desc>
			Created with Pixso.
	</desc>
	<defs/>
	<path id="Vector" d="M1238.72 0L1238.72 174.55L1339.21 174.55L1339.21 230.57L1167.38 230.57L1167.38 0L1238.72 0Z" fill="#0B0B0B" fill-opacity="1.000000" fill-rule="evenodd"/>
	<path id="Vector" d="M1068.56 0L1068.56 51.86L932.71 51.86L932.71 89.17L1057.98 89.17L1057.98 141.03L932.71 141.03L932.71 178.7L1072.4 178.7L1072.4 230.57L861.4 230.57L861.4 0L1068.56 0Z" fill="#0B0B0B" fill-opacity="1.000000" fill-rule="evenodd"/>
	<path id="Vector" d="M694.78 230.57L630.26 230.57L540.37 0L614.94 0L663.27 139.64L710.7 0L784.08 0L694.78 230.57Z" fill="#0B0B0B" fill-opacity="1.000000" fill-rule="evenodd"/>
	<path id="Vector" d="M461.88 0L461.88 51.86L326.02 51.86L326.02 89.17L451.29 89.17L451.29 141.03L326.02 141.03L326.02 178.7L465.71 178.7L465.71 230.57L254.71 230.57L254.71 0L461.88 0Z" fill="#0B0B0B" fill-opacity="1.000000" fill-rule="evenodd"/>
	<path id="Vector" d="M71.31 0L71.31 174.55L171.79 174.55L171.79 230.57L0 230.57L0 0L71.31 0Z" fill="#0B0B0B" fill-opacity="1.000000" fill-rule="evenodd"/>
</svg>
